<?xml version="1.0" encoding="utf-8"?>
<!-- Generator: Adobe Illustrator 19.0.1, SVG Export Plug-In . SVG Version: 6.00 Build 0)  -->
<svg version="1.1" id="Layer_1" xmlns="http://www.w3.org/2000/svg" xmlns:xlink="http://www.w3.org/1999/xlink" x="0px" y="0px"
	 viewBox="0 0 101.6 132.8" enable-background="new 0 0 101.6 132.8" xml:space="preserve">
<path fill="#FFFFFF" d="M99.8,0h-3.2h-0.3h-2.7L53.3,57.7V0h-4.9v57.7L7.9,0H5.2H4.9H1.7H0v132.8h4.9h1l27.7-39.5l14.2,39.5h0.4h4.9
	h0.4l14.2-39.4l27.6,39.4h1.2h4.9V0H99.8z M92.8,10L66.6,83L53.9,65L92.8,10z M47.7,65L35,83L8.8,10L47.7,65z M4.9,125.8V13.7
	l26.7,74.1L4.9,125.8z M48.2,119.8L37,88.5l11.3-16.2v47.8L48.2,119.8z M53.3,119.8l-0.1,0.3V72.4l11.3,16.2L53.3,119.8z M69.9,87.8
	l26.7-74.1v112.1L69.9,87.8z"/>
</svg>
